<svg width="1211" height="1393" viewBox="0 0 1211 1393" fill="none" xmlns="http://www.w3.org/2000/svg">
<path d="M926.424 259.028L922.425 258.028L918.427 277.279L921.176 277.779L926.424 259.028ZM886.438 359.035C885.438 359.035 883.689 363.285 883.189 365.786C875.858 400.788 863.196 433.624 845.202 464.293C840.204 473.043 833.457 481.044 827.959 489.295L821.211 501.796L822.96 503.296C829.958 497.545 836.206 491.045 843.703 486.544C861.197 476.044 879.44 467.043 896.934 456.792L974.407 410.289L979.905 407.289L981.654 408.789C979.655 411.539 977.906 415.039 975.157 417.039C953.914 433.291 933.421 451.042 910.679 464.793C872.943 488.045 833.956 509.546 801.468 539.798C777.726 561.8 756.234 586.052 734.741 610.054C710.733 637.081 693.588 669.498 684.759 704.561C682.54 714.584 676.77 723.465 668.515 729.562C645.023 748.314 621.281 767.065 601.538 790.067C576.047 819.819 568.8 851.322 583.544 887.574C589.043 900.825 594.541 914.326 602.538 926.327C610.535 938.578 621.281 948.829 631.278 960.08C642.274 972.08 642.524 975.831 633.027 989.332L626.529 1001.33L599.789 1041.84L592.041 1051.84C588.543 1032.34 593.291 1015.33 599.539 998.332L616.033 1013.33L598.789 981.831H596.04C592.791 992.582 588.543 1002.83 586.293 1013.58C581.795 1034.84 580.296 1056.09 587.543 1077.59C592.541 1092.59 588.543 1099.59 573.298 1105.34C559.932 1053.3 566.066 998.159 590.542 950.329L625.03 990.332L626.779 989.332C626.613 987.665 626.196 986.082 625.53 984.581C618.865 974.914 611.868 965.497 604.537 956.329C599.539 950.079 592.791 945.078 598.039 934.078C591.792 938.578 588.043 936.578 585.544 931.827L571.549 906.076L540.31 845.321C534.562 833.57 528.064 822.069 523.566 809.819C510.552 776.609 487.707 748.171 458.089 728.312L431.848 708.311L423.601 700.81L424.85 698.81L439.845 705.561C462.17 716.228 484.246 727.229 506.072 738.563C510.82 741.063 515.069 746.064 517.318 751.064C526.148 771.399 534.812 792.067 543.309 813.069C546.308 819.569 550.556 825.57 555.054 833.32C562.552 818.319 562.552 806.068 554.805 793.567V816.069L551.806 816.569C542.309 789.567 531.813 762.565 527.814 733.063L583.794 792.567C588.293 787.567 587.543 783.817 583.794 779.316C553.139 744.48 522.816 709.394 492.826 674.058C466.055 643.687 433.847 618.588 397.86 600.053C350.876 574.301 302.643 550.299 255.41 525.047C240.415 517.297 226.67 507.546 212.425 498.045C203.928 492.545 195.431 488.295 184.935 491.795C181.395 492.574 177.728 492.574 174.188 491.795C171.689 491.045 169.69 488.045 167.441 485.794C169.69 484.544 172.189 482.044 174.188 482.294C180.936 482.794 187.434 484.794 195.181 484.794C189.183 479.627 183.019 474.627 176.688 469.793C165.192 461.959 153.779 454.459 142.45 447.292C132.393 441.052 121.003 437.282 109.211 436.291C95.9659 434.291 90.7178 428.54 87.9688 412.289L120.457 428.04L122.207 427.04L111.211 411.039L92.717 383.037C91.7174 381.287 92.717 378.286 92.717 376.036C95.716 376.286 99.2148 375.536 100.964 377.286C104.63 380.953 107.878 384.954 110.711 389.287C127.705 412.539 146.948 433.291 170.69 450.542C168.69 444.875 166.441 439.291 163.942 433.791L157.694 418.789C153.446 408.289 154.695 406.789 165.192 406.789L180.186 435.041C196.153 463.219 220.292 485.886 249.412 500.045C274.57 514.046 299.978 527.631 325.635 540.799L432.598 596.553C432.264 594.553 431.431 592.302 430.098 589.802C406.107 550.049 391.612 506.296 376.367 462.793C364.627 428.751 347.314 396.898 325.135 368.536C319.387 361.535 313.889 354.285 302.643 358.035C300.644 358.785 297.395 355.035 294.646 353.035C297.145 351.368 299.644 350.034 302.143 349.034C304.143 348.284 306.392 349.034 310.141 349.034C303.143 336.533 293.646 327.783 283.15 320.782C273.154 314.282 261.658 310.281 250.661 305.031L251.661 302.281L268.655 304.781C258.992 291.113 247.829 279.946 235.167 271.278C222.921 262.778 209.176 256.277 196.181 248.777L197.43 245.527L220.672 250.527C217.423 241.526 206.427 236.026 210.176 223.025L223.171 236.776C232.418 246.527 240.665 256.777 250.412 266.278C284.4 299.781 319.137 332.533 346.378 372.286C363.539 397.121 376.867 423.706 386.364 452.042L388.613 455.542C389.613 451.375 390.862 447.625 392.362 444.291C393.611 442.291 396.61 441.041 398.859 439.541C400.109 442.041 402.858 444.791 402.358 447.042C401.608 452.542 399.109 458.042 397.61 463.543C396.86 466.043 395.611 469.543 396.36 471.793L415.104 524.297C416.437 526.797 418.103 528.964 420.102 530.798H419.852C428.355 555.463 441.599 578.225 458.838 597.803C484.079 628.555 510.82 657.807 536.811 688.309C541.143 693.81 545.308 699.56 549.307 705.561L594.291 764.315L599.289 772.316C603.454 765.815 607.869 760.065 612.534 755.064C620.032 748.314 623.53 741.563 616.533 732.563C616.033 731.563 616.783 729.313 617.533 728.062L643.274 684.059C646.106 679.725 649.771 675.808 654.27 672.308C652.608 693.704 647.895 714.752 640.275 734.813C647.772 734.813 648.272 734.813 650.271 727.812L664.016 683.809C674.512 649.057 696.505 621.304 719.247 594.302C741.239 568.551 764.981 544.299 787.223 518.797C796.22 508.796 803.467 497.045 811.464 485.794C815.713 479.544 818.962 472.293 823.71 466.293C838.205 447.542 845.203 427.29 837.705 403.538C835.706 397.288 835.956 390.537 835.206 384.037C841.87 382.037 845.286 383.787 845.452 389.287L847.952 424.29C849.451 422.123 850.701 419.79 851.7 417.289C862.197 391.537 869.944 365.035 871.193 337.283C871.193 334.95 871.443 333.033 871.943 331.533C873.776 329.533 875.858 327.699 878.191 326.033C879.69 328.033 882.439 330.283 882.689 332.533C883.189 339.534 882.689 346.534 884.689 354.285L891.436 346.534C893.685 344.284 896.434 341.534 902.182 342.534C899.933 350.034 897.184 359.535 886.438 359.035Z" fill="#B89361"/>
<path d="M875.636 745.816C878.135 747.566 880.384 750.566 883.133 751.066C901.127 754.733 919.121 758.067 937.114 761.067L957.357 764.317C976.101 768.067 992.345 760.317 1008.59 753.066L1013.09 751.316C1015.59 757.316 1014.84 759.567 1007.84 762.817C1003.17 764.817 998.593 767.151 994.094 769.817C1010.84 773.568 1027.08 775.068 1043.33 769.567L1049.57 767.067C1055.46 765.491 1060.94 762.666 1065.64 758.783C1070.34 754.901 1074.15 750.052 1076.82 744.566C1087.81 723.064 1110.3 718.314 1133.05 716.813H1141.04C1132.8 736.815 1126.8 757.816 1103.56 766.317C1096.39 769.151 1089.56 768.817 1083.06 765.317L1082.06 762.567L1105.56 752.316L1096.06 749.816L1117.55 737.815C1108.55 736.815 1095.31 742.815 1087.56 749.316L1057.07 772.818L1050.32 780.818C1048.66 782.485 1046.66 783.485 1044.33 783.818C1035.83 784.318 1027.33 783.818 1018.84 784.318C1013.59 784.568 1008.34 786.069 1002.84 786.569C999.842 786.569 996.677 786.235 993.345 785.569C974.601 781.818 955.858 775.068 937.114 775.318C915.622 775.568 896.129 769.317 875.886 766.817C839.712 760.629 802.533 764.522 768.424 778.068C763.425 780.235 758.76 782.902 754.429 786.069C788.667 783.818 812.408 803.57 834.401 825.071C857.143 846.823 880.384 867.575 906.875 884.576C914.372 889.076 921.12 892.827 930.367 887.576C934.865 885.076 941.113 885.076 946.611 885.076C942.613 893.827 934.615 892.826 925.119 894.827C948.36 905.327 968.853 917.328 993.844 910.328C1001.51 908.328 1009.34 906.828 1017.34 905.827C1019.09 905.577 1021.08 906.828 1023.08 907.328C1021.83 909.328 1021.08 912.078 1019.34 912.828C1015.5 914.495 1011.59 915.661 1007.59 916.328C1003.09 916.995 998.593 918.495 994.094 920.829C1015.34 924.579 1036.58 930.329 1058.07 931.579C1071.82 932.579 1085.56 926.829 1099.56 923.579C1101.81 923.079 1104.06 920.328 1105.31 918.078C1110.41 908.718 1117.92 900.888 1127.06 895.395C1136.19 889.902 1146.63 886.944 1157.29 886.826C1173.78 885.826 1190.53 888.576 1207.27 891.326C1190.28 907.828 1177.78 928.829 1154.29 936.08C1144.62 938.747 1134.71 940.247 1124.55 940.58C1118.8 941.08 1110.8 938.33 1112.05 931.079C1112.8 924.079 1120.55 924.829 1126.3 925.829C1131.63 926.829 1136.96 928.412 1142.29 930.579L1143.29 928.579L1132.8 918.578C1144.79 913.328 1159.79 918.078 1167.28 903.577L1139.79 911.578C1136.25 912.357 1132.59 912.357 1129.05 911.578L1080.31 942.33C1083.65 943.83 1086.98 944.997 1090.31 945.83C1102.97 948.164 1115.55 950.664 1128.05 953.331C1139.29 955.831 1139.79 957.331 1135.29 970.332L1093.81 956.581C1100.56 966.832 1113.55 971.582 1109.8 986.583C1104.81 982.333 1099.81 979.333 1097.06 975.083C1085.81 957.581 1068.32 950.081 1049.32 946.081C1031.83 942.08 1013.59 940.83 996.094 936.08C949.11 923.329 903.126 908.078 866.139 874.075L862.391 871.825C863.89 877.159 865.39 881.576 866.889 885.076C877.885 911.578 888.132 938.58 900.127 964.582C908.617 982.744 918.65 1000.14 930.117 1016.59C935.115 1023.84 945.112 1027.59 953.109 1032.84C956.108 1034.34 959.023 1035.59 961.856 1036.59L961.606 1038.59H945.112C954.608 1050.59 963.355 1061.92 971.352 1072.59C977.85 1081.76 983.931 1091.17 989.596 1100.84C991.845 1104.84 991.595 1110.09 991.345 1115.59C974.351 1101.84 964.355 1082.34 947.111 1066.59C947.861 1080.34 956.608 1092.59 948.61 1104.84C940.613 1102.34 940.613 1095.09 941.613 1089.34C945.362 1067.34 936.865 1049.84 924.119 1033.09C915.789 1022.25 907.791 1011 900.127 999.334L896.879 1061.34C893.039 1059.68 889.816 1056.86 887.665 1053.27C885.513 1049.68 884.54 1045.51 884.883 1041.34C888.382 1017.09 888.881 992.834 884.133 968.832C882.358 957.149 877.433 946.172 869.888 937.08C871.649 961.968 868.07 986.944 859.392 1010.34L848.646 994.834C852.644 981.333 858.642 967.332 861.141 952.581C863.552 934.563 862.006 916.236 856.61 898.878C851.215 881.519 842.101 865.547 829.902 852.073C821.072 840.406 811.242 829.822 800.412 820.321C785.458 807.304 765.959 800.742 746.182 802.07C726.938 802.82 712.443 813.821 701.197 828.822L696.949 833.822C697.115 833.989 695.699 834.572 692.7 835.572C697.699 820.571 701.197 806.32 707.195 793.569C722.068 763.662 743.411 737.442 769.673 716.813C800.546 691.693 833.58 669.354 868.389 650.059C910.874 625.057 955.858 603.055 993.844 571.303C1018.85 549.994 1043.03 527.725 1066.32 504.548C1072.57 498.797 1076.32 489.797 1079.31 482.046C1085.65 464.878 1091.56 447.793 1097.06 430.792L1099.56 426.292C1105.06 429.042 1107.3 432.292 1105.81 438.293C1103.04 448.505 1101.37 458.98 1100.81 469.545L1105.06 464.545L1148.29 402.04C1149.96 399.873 1151.46 397.623 1152.79 395.29C1155.29 390.539 1159.54 390.289 1163.04 392.789C1164.53 393.79 1164.28 398.79 1163.04 401.04C1148.58 431.292 1129.52 459.124 1106.55 483.546C1103.06 486.546 1101.06 491.047 1097.56 495.547L1143.54 476.046C1145.54 475.296 1148.54 476.546 1151.04 476.796C1150.37 480.463 1149.29 483.963 1147.79 487.296C1147.29 488.547 1145.04 488.797 1143.54 489.047C1113.3 496.547 1088.56 514.048 1064.82 532.55C1048.08 545.801 1033.33 561.552 1016.84 575.303C984.945 602.742 949.873 626.245 912.373 645.308C905.623 648.503 899.252 652.445 893.38 657.059C905.542 653.725 917.705 650.642 929.867 647.808C956.524 642.141 983.432 637.141 1010.59 632.807C1027.08 630.557 1044.08 632.807 1060.57 630.557C1082.31 628.057 1104.31 625.057 1125.05 618.306C1140.54 613.306 1154.04 602.555 1168.78 594.554C1172.45 592.888 1176.53 591.721 1181.03 591.054C1174.53 607.555 1157.29 612.056 1145.54 622.306L1146.79 625.307L1174.53 621.556L1182.53 619.806C1186.78 619.306 1192.77 616.806 1194.02 623.307C1195.52 630.307 1189.03 631.307 1184.53 631.807C1175.7 633.474 1166.95 634.057 1158.29 633.557C1139.79 631.057 1122.3 635.557 1104.31 638.058C1093.44 639.467 1082.73 641.894 1072.32 645.308C1081.81 647.058 1091.81 647.808 1101.06 651.059C1127.71 660.226 1154.29 669.727 1180.78 679.561C1189.25 682.712 1197.59 686.215 1205.77 690.061C1208.02 691.062 1211.02 694.812 1210.77 695.812C1209.27 698.812 1206.77 702.312 1204.02 702.812C1200.36 703.312 1196.69 702.646 1193.02 700.812C1182.03 695.812 1171.2 690.562 1160.54 685.061C1156.69 683.483 1152.66 682.391 1148.54 681.811C1169.28 701.812 1189.03 722.314 1201.52 746.816C1200.02 748.816 1197.77 750.566 1197.77 751.816L1201.27 779.318C1201.52 781.818 1200.52 786.569 1198.77 787.319C1194.77 788.652 1192.02 786.902 1190.53 782.068C1189.28 776.568 1187.28 771.318 1185.03 763.817L1171.53 781.818C1163.2 793.152 1152.04 799.153 1138.04 799.82C1133.71 799.82 1129.55 798.736 1125.55 796.569C1123.55 795.569 1123.05 791.819 1121.55 789.319C1123.88 787.652 1126.21 786.569 1128.55 786.069C1132.55 785.569 1136.71 785.402 1141.04 785.569C1146.04 785.735 1147.96 783.735 1146.79 779.568C1138.79 774.901 1131.63 775.734 1125.3 782.068C1122.8 784.318 1117.8 784.068 1113.8 785.069C1113.55 773.068 1120.55 763.317 1132.8 762.067C1145.79 760.567 1159.04 761.817 1172.03 762.067C1175.86 762.234 1180.11 762.734 1184.78 763.567C1184.78 751.233 1181.28 740.815 1174.28 732.315C1149.17 696.25 1112.34 670.009 1070.07 658.059C1032.15 649.614 992.791 650.128 955.108 659.559C926.118 665.06 897.128 672.81 868.389 680.561C841.898 688.061 818.406 702.312 797.414 719.564C779.586 734.231 762.509 749.733 746.182 766.067C736.935 775.318 730.937 787.319 723.689 798.319L725.689 800.32C728.938 796.319 733.686 792.819 735.685 788.319C745.682 766.817 763.925 758.817 785.168 754.816C797.997 752.649 810.659 750.316 823.154 747.816C828.653 746.316 833.984 744.315 839.149 741.815C841.148 741.065 842.898 739.065 844.897 738.565C868.139 734.315 880.135 712.563 899.378 702.062C899.711 701.896 900.211 700.979 900.877 699.312C891.131 699.312 884.383 704.312 878.385 710.063C872.387 715.813 866.389 717.064 858.892 718.814C846.896 721.814 835.4 727.314 823.904 732.565C814.408 736.815 804.661 740.065 793.165 737.565C801.995 731.898 811.075 726.564 820.406 721.564C837.473 712.709 854.72 704.206 872.137 696.062C887.882 688.561 904.626 686.061 924.119 684.061C915.622 701.562 906.625 714.813 889.131 722.314C874.137 728.564 860.391 738.065 846.146 747.316C854.477 748.149 862.557 748.649 870.388 748.816C872.137 748.816 874.137 747.066 875.886 746.066L875.636 745.816ZM252.855 875.825C246.857 878.492 241.692 880.992 237.36 883.326C211.203 898.66 185.379 914.245 159.888 930.079C145.019 938.704 132.624 951.018 123.9 965.832C122.901 968.165 121.568 969.832 119.902 970.832C117.769 972.007 115.281 972.363 112.904 971.832C111.655 971.582 110.405 967.582 111.155 966.082C113.654 960.748 116.736 954.914 120.402 948.581L98.4093 960.581C92.4114 952.081 92.6613 950.081 102.158 947.331C122.151 941.33 138.395 929.829 154.64 915.828L145.893 917.328L136.146 919.578C129.148 920.829 128.649 920.329 125.65 911.578H147.642C154.39 910.578 161.887 910.328 167.385 907.078C209.726 880.591 254.197 857.677 300.338 838.572C301.171 838.406 302.837 837.406 305.337 835.572C297.839 835.572 292.341 834.822 286.843 835.572C253.998 839.783 220.633 834.581 190.627 820.571C160.637 807.57 130.148 797.57 97.4096 795.569C79.166 794.819 61.4223 792.319 43.4286 791.069C37.1808 790.569 30.933 792.069 24.6852 792.569C22.6859 782.068 23.1857 781.568 32.6824 780.818C41.1794 780.318 49.6764 779.151 58.1734 777.318C37.1808 776.818 22.436 764.817 5.94177 753.066C10.94 748.816 14.9386 747.816 20.4367 750.566C34.5984 758.567 48.9267 766.067 63.4216 773.068C68.2532 775.401 73.2514 776.735 78.4163 777.068C122.401 782.818 165.136 792.569 206.371 809.32C245.358 825.071 286.093 827.322 327.079 821.821C343.823 819.321 359.817 811.82 376.312 806.32C402.302 797.819 428.043 788.569 454.534 781.318C460.532 779.568 468.279 784.318 477.026 786.319C474.027 780.985 470.862 776.318 467.529 772.318C441.802 748.302 412.345 728.628 380.31 714.063C377.188 712.544 373.783 711.693 370.314 711.563C339.824 710.563 309.835 708.813 279.596 709.813C251.855 710.813 227.114 724.314 202.123 735.565C187.961 742.399 175.466 751.649 164.636 763.317C160.637 767.567 154.889 770.317 149.641 773.318C148.142 774.568 144.893 774.318 143.893 775.818C137.396 785.319 129.648 780.818 122.401 777.818C115.737 775.151 109.072 772.234 102.408 769.067L102.908 765.817C108.156 766.317 113.904 765.817 118.902 767.067C129.898 770.317 138.895 770.817 147.642 760.567C154.14 752.816 163.386 747.316 171.634 740.565C165.886 733.565 159.638 735.565 153.14 736.565C145.476 738.232 137.729 739.232 129.898 739.565C118.236 739.565 109.655 733.065 104.157 720.064H126.399C131.564 720.73 136.563 722.147 141.394 724.314C160.887 733.565 179.881 729.564 198.874 722.564C217.201 715.23 235.528 708.229 253.855 701.562C282.903 692.441 313.829 691.062 343.573 697.562L351.57 698.312L352.32 696.312C343.823 692.812 335.826 688.311 327.329 685.561L184.879 636.558C127.066 616.056 69.3361 595.388 11.6897 574.553C7.97824 573.515 4.55694 571.633 1.69327 569.052C0.193792 568.052 -0.0561064 564.802 0.193806 562.802C0.193806 562.052 3.94246 561.052 5.19202 561.552C36.8476 571.219 68.2532 581.053 99.4089 591.054C106.073 593.388 113.487 596.305 121.651 599.805L88.4128 568.052C92.6613 560.552 95.9102 560.802 100.409 564.802C114.154 576.553 126.899 589.804 142.394 598.805C159.888 608.805 179.881 615.556 199.124 622.306C259.603 644.308 320.831 664.31 380.81 687.811C402.053 696.062 420.796 711.063 439.789 724.564C455.95 736.565 471.278 749.483 485.773 763.317C503.767 779.318 511.764 800.82 517.262 825.071C503.074 813.06 485.341 806.034 466.78 805.07C443.416 803.855 420.047 807.341 398.054 815.321C373.063 824.488 348.155 833.822 323.33 843.323C300.838 852.073 280.845 864.074 264.101 883.326C248.273 901.327 234.945 920.912 224.115 942.08C223.115 944.33 218.117 945.08 214.868 945.33C213.869 945.33 211.619 940.58 211.869 938.33C212.702 934.496 214.285 930.746 216.618 927.079C226.864 910.328 235.611 892.326 251.605 879.575C251.939 879.409 252.355 878.242 252.855 876.075V875.825ZM516.512 26.2622C519.011 13.928 515.096 5.1773 504.766 0.0102539L516.512 26.2622ZM556.748 117.519C569.244 140.271 577.491 164.522 588.237 187.774C602.871 218.721 611.601 252.129 613.978 286.281C616.477 322.951 618.643 359.62 620.476 396.29C621.226 408.041 620.476 419.791 620.476 431.292L626.224 424.042L675.206 345.036C691.701 317.534 690.701 287.032 688.952 256.779C686.952 223.777 682.954 190.774 682.204 157.522C681.704 136.27 685.203 115.019 687.202 93.7672C698.198 91.7671 698.198 92.5171 697.199 103.768C696.199 114.269 695.949 124.936 696.449 135.77C696.449 151.772 696.865 167.856 697.699 184.024C699.198 212.276 701.947 240.528 703.197 268.78C703.696 279.531 701.447 290.532 700.698 302.783L724.689 275.281C738.934 257.779 751.68 239.278 767.174 222.777C789.666 198.775 813.408 175.273 840.648 156.022C845.896 152.272 849.895 146.771 854.144 141.771C861.308 133.437 868.639 125.353 876.136 117.519C878.635 115.269 884.133 116.519 888.382 116.269L889.631 119.269L864.64 149.271L865.64 150.771L873.387 148.021C876.886 146.771 880.384 144.521 884.133 144.271C887.132 144.271 890.131 146.021 893.13 146.771C890.881 149.271 889.131 152.522 886.632 153.772C874.636 159.022 861.141 162.022 850.645 169.523C833.651 181.274 818.156 195.775 803.161 209.776C792.165 219.777 782.002 230.277 772.672 241.278C739.654 280.768 709.583 322.634 682.704 366.537C664.46 395.79 645.967 424.542 630.222 454.794C618.976 476.046 611.979 499.297 603.482 521.799L582.239 578.803L579.74 587.304L581.739 588.054L609.73 529.3L611.979 530.3C614.728 549.301 608.73 566.302 600.733 583.304C595.235 594.971 590.986 607.055 587.987 619.556C582.489 644.558 584.488 668.56 600.733 690.061C603.232 693.062 604.731 696.562 607.48 701.062C624.474 677.061 624.474 647.308 637.47 621.556L648.466 657.059C649.299 659.893 649.132 662.476 647.966 664.81C638.469 681.478 628.64 698.145 618.476 714.813L610.979 727.564C606.481 723.397 602.565 719.397 599.233 715.563C589.237 703.062 579.573 690.562 570.243 678.061C568.376 674.982 567.503 671.403 567.744 667.81L571.743 601.305C572.743 586.054 572.992 570.553 576.241 555.551C580.24 536.3 586.738 517.799 592.486 498.797C597.734 480.546 604.481 463.045 603.982 443.043C602.732 403.04 604.731 363.287 603.982 323.534C601.868 275.501 591.117 228.241 572.243 184.024C567.152 170.565 557.395 159.385 544.752 152.522L546.002 150.771L555.249 152.022C554.249 147.021 554.249 142.771 552.75 138.771C549.001 130.27 545.752 121.269 540.254 113.769C530.507 99.2676 530.258 82.2664 526.259 66.2652C525.759 65.0151 528.758 62.7649 530.258 61.0148C530.258 61.0148 531.507 59.2646 534.756 59.0146C542.503 80.0162 547.251 99.7677 556.748 117.519Z" fill="#B89361"/>
<path d="M573.738 523.311C563.491 506.31 554.245 489.308 543.249 473.807C512.593 431.471 481.687 389.384 450.531 347.548L410.545 294.294C407.713 291.627 404.547 289.293 401.048 287.293C386.387 277.293 371.892 266.958 357.564 256.291C355.315 254.791 355.315 250.541 353.565 245.29C376.057 250.541 389.303 265.042 402.298 279.543L404.047 278.293C402.381 273.626 400.382 269.042 398.05 264.542C385.721 243.54 373.641 222.372 361.812 201.037C351.483 181.702 341.486 162.201 331.823 142.533C330.323 138.866 328.99 135.032 327.824 131.032C334.572 128.531 337.821 130.282 340.82 135.282C344.485 141.282 348.4 147.116 352.566 152.783L354.565 152.283L354.065 141.532C354.398 133.032 354.898 124.615 355.564 116.281C355.564 114.53 358.813 113.28 360.563 112.03C361.562 114.03 364.311 116.281 364.061 118.031C363.228 126.865 361.812 135.532 359.813 144.033C357.564 153.033 356.814 161.534 361.812 170.035L400.049 233.539C413.044 254.791 424.79 277.043 438.785 297.544C456.279 323.296 475.772 347.798 494.266 373.05L523.006 413.053L575.237 484.058C585.234 498.059 585.234 507.81 573.738 523.311ZM643.713 964.594C632.717 954.593 630.218 947.842 637.215 934.341C644.463 919.34 649.211 903.339 654.709 887.838L651.46 886.338L626.219 939.842C621.388 934.175 616.973 928.674 612.974 923.34C612.224 922.09 612.974 918.84 614.224 917.34C644.713 876.837 662.707 829.834 680.7 783.08C686.198 768.829 697.194 755.578 708.44 744.827C732.182 721.826 757.673 701.074 782.164 679.072C792.827 669.905 803.157 660.488 813.154 650.82C816.402 647.32 817.402 641.82 819.401 637.319L828.148 619.068C829.148 617.568 832.897 617.318 835.146 616.568C835.646 618.818 837.145 621.318 836.395 623.068L828.398 643.32L829.898 645.32C841.893 638.486 853.473 631.069 864.635 623.068C874.465 615.234 883.962 606.9 893.125 598.066C894.292 596.733 895.458 595.65 896.624 594.816C899.29 594.316 902.039 594.066 904.871 594.066C904.871 596.566 905.371 599.817 904.122 601.067C894.125 611.817 884.378 623.568 872.633 632.069C856.888 643.07 838.145 649.57 822.9 661.071C800.702 678.366 779.352 696.722 758.923 716.075C736.628 735.708 718.01 759.16 703.942 785.33C691.087 808.418 682.932 833.826 679.95 860.086C679.617 862.586 678.951 865.253 677.951 868.086L649.711 951.843C648.045 956.176 646.046 960.427 643.713 964.594ZM443.034 1387.12C457.029 1382.12 469.858 1377.37 481.52 1372.87C514.921 1357.84 544.611 1335.65 568.49 1307.87C591.315 1282.87 609.892 1255.2 624.22 1224.86C632.217 1207.11 645.213 1191.61 656.209 1175.11L680.45 1140.86C688.697 1155.11 675.952 1270.62 652.96 1289.62H652.46C641.464 1274.12 641.214 1259.62 650.961 1242.61C658.458 1229.61 661.457 1213.86 665.955 1199.36C666.955 1195.69 666.955 1191.86 665.955 1187.86C660.457 1202.53 654.626 1217.03 648.461 1231.36C626.257 1283.06 590.511 1327.81 544.998 1360.87C518.108 1379.22 486.328 1389.06 453.78 1389.12L443.034 1387.12ZM515.508 1252.86C527.004 1223.86 539 1198.36 564.741 1180.86C580.985 1169.61 593.731 1153.36 607.726 1139.11C610.975 1135.61 612.724 1130.36 615.223 1125.86C590.232 1150.86 526.005 1200.61 503.013 1211.86C506.262 1200.86 507.261 1189.86 517.508 1183.11C548.996 1161.77 580.235 1140.02 611.225 1117.85C621.971 1110.1 630.468 1099.35 639.964 1089.85L646.462 1083.6C645.445 1099.12 640.824 1114.19 632.967 1127.61C625.136 1140.44 616.806 1153.11 607.976 1165.61L610.725 1167.61L635.716 1134.61C648.878 1115.6 656.542 1094.52 658.708 1071.35C658.999 1068.31 659.846 1065.34 661.207 1062.6C668.038 1049.93 675.619 1037.6 683.949 1025.6C681.117 1041.77 677.701 1057.85 673.703 1073.85C661.645 1110.15 642.154 1143.53 616.473 1171.86C590.107 1202.12 559.056 1227.95 524.505 1248.36L515.508 1252.86ZM992.84 1342.12C986.843 1343.45 980.845 1344.29 974.847 1344.62C945.857 1344.62 917.117 1345.87 888.377 1343.37C856.85 1339.14 826.117 1330.29 797.159 1317.12C771.83 1306.89 748.866 1291.57 729.683 1272.12C725.402 1268.12 721.993 1263.28 719.671 1257.9C717.349 1252.52 716.163 1246.72 716.188 1240.86L714.938 1190.61L715.438 1181.11L717.437 1180.36C720.103 1184.19 722.186 1188.11 723.685 1192.11C739.679 1240.36 773.917 1272.12 817.152 1295.87C857.138 1317.87 899.873 1328.37 944.607 1333.62L988.092 1338.62C989.758 1338.79 991.424 1339.37 993.09 1340.37L992.84 1342.12Z" fill="#B89361"/>
<path d="M759.686 1349.08L755.438 1341.08C784.653 1357.7 816.268 1369.67 849.155 1376.59L848.655 1379.59C832.91 1377.84 816.916 1377.59 801.921 1373.84C779.929 1368.09 758.437 1359.84 736.944 1352.59C727.281 1349.08 720.617 1342.58 716.951 1333.08L697.708 1280.58C694.043 1271.75 690.127 1262.91 685.962 1254.08L682.713 1254.83C683.88 1264 685.546 1273.08 687.712 1282.08L702.206 1322.08L707.205 1336.83L705.205 1338.33C700.54 1335.5 696.042 1332.42 691.71 1329.08C683.713 1321.25 675.716 1313.75 667.719 1306.58C663.553 1302.91 662.554 1298.75 664.72 1294.08C667.719 1287.33 669.718 1280.08 672.967 1273.58C685.712 1249.08 685.962 1222.33 687.961 1196.07C689.961 1172.32 689.961 1148.57 691.71 1125.07C691.96 1118.07 694.709 1111.32 696.209 1104.32H699.707C701.457 1114.32 703.956 1123.82 704.706 1133.57L707.954 1239.58C708.454 1249.08 711.453 1258.58 713.702 1268.08C714.869 1273.08 716.285 1278.33 717.951 1283.83C723.949 1307.5 735.861 1327.75 753.688 1344.58L759.686 1349.08ZM347.581 1103.32L337.585 1067.56C333.586 1074.81 330.837 1081.82 334.586 1090.07C338.251 1097.9 341.833 1106.4 345.332 1115.57C337.335 1114.57 335.835 1113.07 334.336 1104.32C333.336 1099.07 332.836 1093.57 330.587 1087.57L316.842 1112.32L307.595 1109.82L326.588 1051.06L247.616 1104.32L233.621 1089.57L240.619 1085.82C263.924 1078.5 285.693 1066.98 304.846 1051.81C320.091 1039.06 329.837 1022.06 336.585 1003.31V998.559L323.09 1006.56C325.589 1001.56 326.588 998.059 328.838 995.559C348.831 972.807 353.079 944.055 360.077 916.053C366.574 889.301 370.073 861.799 386.317 837.797C397.314 821.796 407.06 816.045 428.803 817.295C426.137 820.962 423.638 823.879 421.305 826.046C395.314 846.047 385.318 875.3 377.071 905.052C372.072 922.553 369.073 941.055 365.325 958.806C361.076 978.307 363.326 997.059 369.074 1015.81C370.582 1020.7 371.586 1025.72 372.072 1030.81C372.072 1033.31 370.323 1035.81 369.573 1037.81C367.074 1036.31 363.326 1035.31 362.826 1033.31L356.328 997.309V988.808L353.079 994.559C348.414 1009.56 343.999 1024.81 339.834 1040.31C339.084 1043.06 340.584 1046.81 341.333 1049.81L343.832 1057.56L351.33 1088.82C352.08 1093.32 351.33 1098.07 351.33 1102.82L347.581 1103.32ZM736.944 702.287L696.958 737.289C672.217 758.541 645.476 778.293 622.734 801.794C605.24 820.296 594.244 844.297 600.992 871.799L602.991 878.3L607.49 886.551C628.807 859.063 642.59 826.489 647.476 792.043C647.476 787.793 651.474 783.293 654.973 780.043C659.971 775.042 665.719 771.292 671.967 766.542C674.716 793.044 641.228 875.05 606.99 914.053L602.491 909.802C583.248 880.55 575.001 840.297 596.993 807.295C611.488 785.543 630.232 768.792 649.725 752.291C673.217 733.039 697.708 714.788 725.698 702.287L734.695 699.037L736.944 702.287ZM236.87 1342.33C240.869 1341.58 245.117 1339.83 249.366 1339.83C290.518 1335.67 330.92 1327.58 370.573 1315.58C416.39 1301.41 455.793 1277 488.781 1242.33C499.778 1231.33 511.107 1220.58 522.769 1210.07L525.269 1212.07L510.774 1242.08C505.276 1253.33 500.027 1264.58 488.032 1270.83C479.201 1275.5 474.453 1283.08 473.787 1293.58C473.037 1303.33 468.289 1308.58 458.792 1312.08C421.252 1326.84 382.064 1337 342.083 1342.33C315.592 1345.08 288.352 1344.58 261.611 1345.33H237.12L236.87 1342.33Z" fill="#B89361"/>
<path d="M482.508 1302.83C482.508 1288.57 488.506 1279.32 500.502 1271.82C527.242 1255.07 554.483 1238.82 579.224 1219.32C623.308 1185.3 657.056 1139.68 676.69 1087.56L688.186 1056.06L691.435 1049.81L694.683 1050.31C694.683 1057.06 695.683 1063.81 694.683 1070.31C689.225 1101.36 677.305 1130.92 659.696 1157.07C618.71 1219.57 560.481 1261.32 495.753 1295.83L482.508 1302.83ZM550.234 1287.82C540.571 1297.33 531.407 1305.91 522.744 1313.58C496.983 1336.74 467.926 1355.95 436.524 1370.58C415.698 1379.41 394.206 1382.67 372.047 1380.33C392.54 1370.33 414.032 1362.08 433.775 1350.58C448.77 1341.83 462.015 1329.33 476.26 1318.58C480.092 1315.24 484.257 1312.08 488.756 1309.08L571.227 1260.07L573.726 1259.57L573.476 1286.57C573.476 1289.07 571.977 1292.33 570.227 1294.08C552.983 1309.83 535.989 1326.33 517.746 1341.08C503.701 1352.65 486.765 1360.18 468.763 1362.83L479.759 1354.83L537.989 1309.58L545.486 1303.33C551.734 1298.83 551.734 1298.83 550.234 1287.82ZM991.579 329.754C1003.82 312.252 1015.32 294.751 1031.07 280.5C1037.81 286.5 1034.81 292.001 1031.57 296.501C1020.24 311.836 1008.66 327.17 996.827 342.505C989.496 351.839 982.582 361.589 976.084 371.757C989.58 366.256 1000.08 355.506 1018.32 355.006C1015.57 359.006 1014.57 361.756 1012.32 363.256C963.802 397.6 914.984 431.52 865.873 465.014C863.124 466.764 855.877 467.514 855.377 466.264C852.711 461.097 854.127 456.513 859.626 452.513C887.366 433.511 915.606 415.26 939.597 391.508C962.97 369.932 978.454 341.152 983.582 309.752C983.582 308.252 983.915 306.919 984.582 305.752L990.829 299.251C991.829 301.752 993.828 304.502 993.578 307.002C993.245 314.503 992.579 322.003 991.579 329.504V329.754Z" fill="#B89361"/>
<path d="M684.477 956.837C685.227 959.837 686.726 962.837 686.477 965.838C684.848 997.16 674.836 1027.47 657.487 1053.59C635.636 1085.58 607.277 1112.59 574.266 1132.85C560.104 1142.35 545.609 1151.43 530.781 1160.1C537.779 1135.1 540.028 1107.6 560.771 1086.85C566.519 1101.35 560.771 1114.35 558.771 1126.85C621.249 1085.35 663.734 1030.09 679.979 956.087L684.477 956.837Z" fill="#B89361"/>
<path d="M981.622 1366.85L965.878 1369.35C897.652 1375.35 830.925 1370.6 768.947 1337.84C754.165 1330.89 742.055 1319.31 734.459 1304.84C730.919 1297.93 728.474 1290.5 727.212 1282.84L743.956 1296.84C768.447 1317.34 798.187 1327.59 827.676 1338.34C865.663 1352.18 905.066 1359.93 945.885 1361.6L981.622 1364.1V1366.85ZM632.995 1320.59C629.496 1313.59 625.247 1306.84 622.498 1299.34C621.431 1295.13 621.965 1290.68 623.998 1286.84C626.497 1281.59 630.995 1277.34 635.494 1271.59L651.988 1304.09C653.654 1306.76 655.57 1309.26 657.736 1311.59C694.413 1344.17 737.988 1368.02 785.191 1381.35L809.683 1388.85C786.855 1392.83 763.416 1391.46 741.207 1384.85C707.966 1377.14 677.252 1361.04 651.988 1338.09L644.991 1330.59L632.995 1320.59Z" fill="#B89361"/>
<path d="M678.704 892.068C688.7 936.822 647.215 1046.58 599.481 1084.08L594.483 1071.08C593.603 1068.15 593.509 1065.03 594.211 1062.05C594.913 1059.06 596.386 1056.32 598.482 1054.08C626.538 1021.27 647.778 983.189 660.96 942.072C665.958 925.821 672.206 910.07 678.454 892.068H678.704Z" fill="#B89361"/>
<path d="M823 1038C842.237 1034.54 837.84 1014.33 849.382 1006.62L857.076 1016.19L859 1015.13V988L841.687 998.638C844.435 1016.46 829.87 1024.44 823 1038Z" fill="#A6D061"/>
<path d="M632.947 1320.62C631.448 1326.12 631.448 1332.37 628.449 1336.62C617.379 1352.37 602.823 1365.34 585.917 1374.53C569.011 1383.73 550.211 1388.89 530.983 1389.62L526.484 1388.62C549.476 1374.12 575.217 1365.87 591.212 1344.37L589.712 1341.87L579.716 1345.62L578.466 1344.87L595.46 1326.62L600.708 1337.62C602.708 1333.12 605.706 1329.12 604.957 1327.62C599.959 1320.12 605.707 1315.62 609.455 1310.62L614.953 1303.87L625.45 1318.87C628.448 1322.87 629.198 1322.87 632.947 1320.62Z" fill="#B89361"/>
<path d="M601.766 606.811L610.763 625.313L613.012 624.813C611.763 619.812 611.763 613.812 609.514 609.062C602.016 594.561 607.764 582.31 615.262 568.559C624.758 586.06 635.754 601.061 627.757 622.063C621.259 639.064 617.261 657.065 612.013 674.566C610.513 678.233 608.681 681.817 606.515 685.317C590.52 676.567 590.27 633.313 601.766 606.811Z" fill="#B89361"/>
<path d="M461.348 1321.1C439.1 1340.88 412.177 1354.65 383.126 1361.11C347.472 1368.94 311.401 1370.61 274.914 1366.11C338.638 1358.64 401.233 1343.53 461.348 1321.1Z" fill="#B89361"/>
<path d="M559.525 997.838L553.527 898.581L556.026 897.831L560.525 905.582C568.022 917.249 575.27 928.833 582.267 940.334C583.517 942.084 584.766 945.335 584.017 946.835L561.275 998.338L559.525 997.838Z" fill="#B89361"/>
<path d="M599.262 760.325L574.77 724.322C570.311 718.539 567.172 711.848 565.574 704.721C563.977 697.594 563.96 690.203 565.523 683.069C569.272 686.569 572.021 688.569 574.27 691.319C586.266 705.821 597.929 720.572 609.258 735.573C610.758 738.073 610.508 743.073 609.258 746.074C606.093 751.074 602.76 755.824 599.262 760.325Z" fill="#B89361"/>
<path d="M710.468 1387.38C680.637 1386.82 652.134 1374.94 630.746 1354.12L640.493 1339.12C659.486 1361.62 685.227 1373.88 710.468 1387.63V1387.38Z" fill="#B89361"/>
<path d="M604.777 1377.37C620.022 1359.12 619.772 1359.37 637.766 1373.12C646.763 1380.12 656.759 1385.62 666.006 1391.62C655.01 1396.12 621.521 1389.12 604.777 1377.62V1377.37Z" fill="#B89361"/>
<path d="M615.027 836.057C615.527 831.806 615.027 826.806 616.777 823.056C620.442 816.389 624.857 810.138 630.022 804.304C632.355 801.637 635.437 799.054 639.269 796.554C639.269 817.305 629.272 833.307 620.525 850.058L615.027 836.057Z" fill="#B89361"/>
<path d="M586.279 1277.35C579.532 1254.34 580.281 1251.84 597.525 1241.34L609.271 1233.84C599.275 1246.84 600.774 1265.84 586.279 1277.35Z" fill="#B89361"/>
<path d="M1147.85 451.539C1148.6 448.789 1148.85 445.038 1150.85 443.038C1157.68 437.038 1164.84 431.204 1172.34 425.537C1173.34 425.037 1176.09 425.037 1176.59 425.787C1178.09 427.954 1178.84 430.121 1178.84 432.287C1178.3 434.716 1176.87 436.855 1174.84 438.288L1149.85 453.789L1147.85 451.539Z" fill="#B89361"/>
<path d="M45.1408 357.562L45.9008 357.782V357.942L44.4408 358.192C44.4008 357.882 44.4608 357.722 44.7508 357.692C44.8908 357.682 45.0108 357.602 45.1508 357.552L45.1408 357.562Z" fill="#A6D061"/>
<path d="M67.8594 348.692L68.0094 348.032C68.0694 347.818 68.1427 347.612 68.2294 347.412C68.2594 347.352 68.3594 347.302 68.4294 347.302C68.4794 347.302 68.5494 347.382 68.5694 347.452C68.6694 347.752 68.2694 348.582 67.8694 348.692H67.8594Z" fill="#A6D061"/>
<path d="M87.1313 361.692C86.7513 361.692 86.5312 361.492 86.5312 361.222C86.5312 361.012 86.6012 360.872 86.8512 360.872C87.1012 360.872 87.4913 361.162 87.4413 361.382C87.4113 361.522 87.2013 361.632 87.1313 361.682V361.692Z" fill="#A6D061"/>
<path d="M557.481 1039.31C558.23 1050.56 559.48 1061.81 558.98 1073.31C558.73 1077.56 553.982 1081.31 550.983 1085.31L546.984 1083.81L553.982 1038.81L557.481 1039.31Z" fill="#B89361"/>
</svg>
