<svg width="105" height="58" viewBox="0 0 105 58" fill="none" xmlns="http://www.w3.org/2000/svg">
<path d="M33.0831 13.6919V31.5149L37.9865 48.563C28.9969 40.5556 20.552 34.8729 9.11064 36.9393C2.75435 37.8003 1.21072 40.6417 4.47967 45.4634C6.92435 49.2713 10.3668 52.4144 14.4721 54.5871C18.5774 56.7598 23.2058 57.888 27.9072 57.862C60.3243 59.9285 89.7449 38.4891 105 13.4335C81.8449 5.42608 58.6899 -3.35627 33.0831 1.29322C19.7349 3.61797 7.20382 7.49253 0.665915 19.8912C-0.696148 22.2159 0.121023 28.4152 2.30032 29.7068C8.2934 33.323 19.4624 29.7068 24.0934 24.0241L33.0831 13.6919Z" fill="#A6D061"/>
</svg>
