<svg width="933" height="423" viewBox="0 0 933 423" fill="none" xmlns="http://www.w3.org/2000/svg">
<path d="M3.986 100.675C8.39826 97.3534 14.6682 98.2374 17.9899 102.65C17.9909 102.651 17.9929 102.655 17.9958 102.658C18.0014 102.666 18.0105 102.678 18.0231 102.695C18.0484 102.728 18.0877 102.78 18.1403 102.85C18.2455 102.989 18.4045 103.197 18.612 103.469C19.0269 104.013 19.6369 104.807 20.4059 105.798C21.9457 107.782 24.1163 110.54 26.6305 113.633C31.7289 119.904 37.9847 127.229 43.2116 132.307C49.8163 138.724 59.4805 146.123 67.7848 152.086C71.8799 155.027 75.5409 157.545 78.1754 159.325C79.4914 160.215 80.5483 160.918 81.2711 161.396C81.6325 161.635 81.9106 161.817 82.0954 161.938C82.1877 161.998 82.2568 162.043 82.3014 162.072C82.3236 162.087 82.3393 162.098 82.3493 162.105C82.3542 162.108 82.3582 162.109 82.36 162.111L82.361 162.112L82.7848 162.403C87.0709 165.504 88.217 171.456 85.3044 175.944C82.2974 180.576 76.1038 181.894 71.4713 178.887L76.9157 170.499C71.677 178.57 71.4785 178.875 71.4704 178.886L71.4684 178.885C71.4669 178.884 71.4648 178.883 71.4626 178.881C71.458 178.878 71.4516 178.874 71.444 178.869C71.4285 178.859 71.4064 178.846 71.3786 178.827C71.3227 178.791 71.2423 178.738 71.1383 178.67C70.9302 178.534 70.6278 178.335 70.2409 178.079C69.4671 177.568 68.3539 176.826 66.9762 175.895C64.2233 174.034 60.4019 171.407 56.1198 168.332C47.6699 162.265 36.9977 154.154 29.2751 146.652C23.1649 140.715 16.2998 132.632 11.111 126.249C8.48173 123.015 6.21642 120.135 4.60709 118.062C3.80192 117.024 3.15889 116.187 2.71451 115.605C2.49224 115.314 2.31951 115.086 2.20084 114.929C2.14162 114.851 2.09585 114.79 2.06412 114.748C2.04832 114.727 2.03578 114.711 2.02701 114.699C2.0227 114.694 2.01884 114.689 2.01627 114.686C2.01497 114.684 2.01418 114.682 2.01334 114.681L2.01236 114.68C2.01196 114.679 2.01142 114.679 10.0006 108.664L2.01139 114.679C-1.3102 110.267 -0.426177 103.997 3.986 100.675Z" fill="#A6D061"/>
<path d="M570.001 412.497C405.434 438.481 287.767 416.956 157.934 335.078C97.5537 298.996 64.3969 244.34 68.4981 152.617C220.867 232.385 430.367 121.117 115.211 133.066C72.8462 129.715 62.8174 100.494 95.8568 73.025C126.596 46.4533 167.623 22.4946 209.414 14.1414C311.063 -9.90603 417.542 -2.98734 515.169 34.0086C657.146 92.5941 792.795 165.577 932.854 232.863C904.001 298.997 721.98 388.502 570.001 412.497Z" fill="#A6D061"/>
</svg>
