<svg width="984" height="552" viewBox="0 0 984 552" fill="none" xmlns="http://www.w3.org/2000/svg">
<path d="M49.8682 451.311C54.7088 453.97 60.7888 452.201 63.4478 447.361C63.4487 447.359 63.4501 447.355 63.4524 447.351C63.4569 447.343 63.4642 447.33 63.4743 447.312C63.4946 447.275 63.526 447.217 63.5682 447.141C63.6525 446.989 63.7802 446.76 63.9468 446.461C64.2801 445.864 64.7705 444.99 65.3905 443.9C66.6319 441.718 68.3872 438.678 70.4351 435.258C74.5877 428.324 79.7359 420.183 84.1858 414.412C89.8087 407.12 98.3197 398.418 105.69 391.333C109.324 387.839 112.589 384.825 114.943 382.687C116.118 381.619 117.064 380.772 117.712 380.196C118.035 379.908 118.285 379.689 118.45 379.543C118.533 379.47 118.595 379.415 118.635 379.38C118.655 379.362 118.669 379.349 118.678 379.341C118.682 379.337 118.686 379.335 118.687 379.334L118.688 379.333L119.066 378.984C122.867 375.304 123.153 369.249 119.631 365.222C115.994 361.066 109.676 360.644 105.519 364.28L112.103 371.806C105.768 364.565 105.528 364.291 105.518 364.281L105.517 364.283C105.515 364.284 105.513 364.286 105.511 364.287C105.507 364.291 105.502 364.296 105.495 364.302C105.481 364.314 105.461 364.33 105.436 364.352C105.386 364.396 105.314 364.46 105.221 364.542C105.034 364.707 104.763 364.947 104.416 365.255C103.723 365.872 102.727 366.765 101.496 367.882C99.0368 370.116 95.6287 373.261 91.8284 376.915C84.3294 384.124 74.922 393.673 68.3473 402.2C63.1455 408.946 57.5023 417.926 53.2761 424.982C51.1345 428.558 49.3028 431.732 48.0053 434.013C47.3562 435.155 46.8391 436.075 46.4822 436.715C46.3037 437.035 46.1652 437.285 46.07 437.457C46.0226 437.543 45.9859 437.609 45.9605 437.655C45.9478 437.678 45.9377 437.696 45.9307 437.709C45.9272 437.715 45.9241 437.72 45.922 437.724C45.921 437.726 45.9205 437.728 45.9198 437.729L45.919 437.73C45.9187 437.731 45.9182 437.732 54.683 442.546L45.9182 437.731C43.2592 442.572 45.0277 448.652 49.8682 451.311Z" fill="#A6D061"/>
<path d="M565.67 62.0108C399.08 59.7444 285.681 97.8175 168.841 197.362C114.219 241.681 89.1896 300.503 106.32 390.706C245.767 290.038 468.984 370.316 155.342 403.4C113.887 412.754 108.125 443.106 144.742 465.587C178.954 487.507 222.976 505.374 265.531 507.687C369.57 517.003 473.976 494.981 565.334 444.451C697.514 366.231 821.378 274.662 950.419 188.104C912.436 126.756 719.518 64.1038 565.67 62.0108Z" fill="#A6D061"/>
</svg>
